<?xml version="1.0" standalone="no"?>
<!DOCTYPE svg PUBLIC "-//W3C//DTD SVG 1.1//EN" "http://www.w3.org/Graphics/SVG/1.1/DTD/svg11.dtd" >
<!--
2013-9-30: Created.
-->
<svg>
<metadata>
Created by iconfont
</metadata>
<defs>

<font id="iconfont" horiz-adv-x="1024" >
  <font-face
    font-family="iconfont"
    font-weight="500"
    font-stretch="normal"
    units-per-em="1024"
    ascent="896"
    descent="-128"
  />
    <missing-glyph />
    
    <glyph glyph-name="x" unicode="x" horiz-adv-x="1001"
d="M281 543q-27 -1 -53 -1h-83q-18 0 -36.5 -6t-32.5 -18.5t-23 -32t-9 -45.5v-76h912v41q0 16 -0.5 30t-0.5 18q0 13 -5 29t-17 29.5t-31.5 22.5t-49.5 9h-133v-97h-438v97zM955 310v-52q0 -23 0.5 -52t0.5 -58t-10.5 -47.5t-26 -30t-33 -16t-31.5 -4.5q-14 -1 -29.5 -0.5
t-29.5 0.5h-32l-45 128h-439l-44 -128h-29h-34q-20 0 -45 1q-25 0 -41 9.5t-25.5 23t-13.5 29.5t-4 30v167h911zM163 247q-12 0 -21 -8.5t-9 -21.5t9 -21.5t21 -8.5q13 0 22 8.5t9 21.5t-9 21.5t-22 8.5zM316 123q-8 -26 -14 -48q-5 -19 -10.5 -37t-7.5 -25t-3 -15t1 -14.5
t9.5 -10.5t21.5 -4h37h67h81h80h64h36q23 0 34 12t2 38q-5 13 -9.5 30.5t-9.5 34.5q-5 19 -11 39h-368zM336 498v228q0 11 2.5 23t10 21.5t20.5 15.5t34 6h188q31 0 51.5 -14.5t20.5 -52.5v-227h-327z" />
    

    
    <glyph glyph-name="huiyiziliao" unicode="&#58907;" d="M187.733333 812 68.266667 812C30.72 812 0 781.28 0 743.733333l0-887.466667c0-37.546667 30.72-68.266667 68.266667-68.266667l119.466667 0c37.546667 0 68.266667 30.72 68.266667 68.266667L256 743.733333C256 781.28 225.28 812 187.733333 812zM162.133333 129.333333l-85.333333 0C63.146667 129.333333 51.2 141.28 51.2 154.933333 51.2 168.586667 63.146667 180.533333 76.8 180.533333l85.333333 0c13.653333 0 25.6-11.946667 25.6-25.6C187.733333 141.28 175.786667 129.333333 162.133333 129.333333zM162.133333 282.933333l-85.333333 0C63.146667 282.933333 51.2 294.88 51.2 308.533333 51.2 322.186667 63.146667 334.133333 76.8 334.133333l85.333333 0c13.653333 0 25.6-11.946667 25.6-25.6C187.733333 294.88 175.786667 282.933333 162.133333 282.933333zM162.133333 436.533333l-85.333333 0C63.146667 436.533333 51.2 448.48 51.2 462.133333 51.2 475.786667 63.146667 487.733333 76.8 487.733333l85.333333 0c13.653333 0 25.6-11.946667 25.6-25.6C187.733333 448.48 175.786667 436.533333 162.133333 436.533333zM529.066667 812l-119.466667 0c-37.546667 0-68.266667-30.72-68.266667-68.266667l0-887.466667c0-37.546667 30.72-68.266667 68.266667-68.266667l119.466667 0c37.546667 0 68.266667 30.72 68.266667 68.266667L597.333333 743.733333C597.333333 781.28 566.613333 812 529.066667 812zM503.466667 282.933333l-85.333333 0c-13.653333 0-25.6 11.946667-25.6 25.6 0 13.653333 11.946667 25.6 25.6 25.6l85.333333 0c13.653333 0 25.6-11.946667 25.6-25.6C529.066667 294.88 517.12 282.933333 503.466667 282.933333zM503.466667 436.533333l-85.333333 0c-13.653333 0-25.6 11.946667-25.6 25.6 0 13.653333 11.946667 25.6 25.6 25.6l85.333333 0c13.653333 0 25.6-11.946667 25.6-25.6C529.066667 448.48 517.12 436.533333 503.466667 436.533333zM657.066667 713.013333c-5.12 37.546667 22.186667 71.68 59.733333 76.8l117.76 13.653333C870.4 808.586667 904.533333 781.28 909.653333 743.733333l107.52-863.573333c5.12-37.546667-22.186667-71.68-59.733333-76.8l-117.76-13.653333c-37.546667-5.12-71.68 22.186667-76.8 59.733333L657.066667 713.013333z"  horiz-adv-x="1024" />

    
    <glyph glyph-name="yewu" unicode="&#58892;" d="M844.999698 562.797311 173.070242 562.797311l0-65.698305 671.928433 0L844.998675 562.797311 844.999698 562.797311zM844.999698 452.302755 173.070242 452.302755l0-68.686359 671.928433 0L844.998675 452.302755 844.999698 452.302755zM844.999698 679.264906 173.070242 679.264906l0-65.698305 671.928433 0L844.998675 679.264906 844.999698 679.264906zM423.921477 183.533428 606.087377 183.533428l134.388756 101.532441 104.523565 0 0 44.797275L173.070242 329.863145 173.070242 285.065869l122.43961 0L423.921477 183.533428 423.921477 183.533428zM741.950717 222.353572l-134.388756-101.531418L425.396061 120.822155l-128.411625 101.531418L64.048223 222.353572l0-301.618479 895.90253 0L959.950753 222.353572 741.950717 222.353572 741.950717 222.353572zM741.950717 222.353572"  horiz-adv-x="1024" />

    
    <glyph glyph-name="dianhua" unicode="&#59357;" d="M285.446659 748.214255 110.533954 748.214255c-12.619412 0-24.441669-4.975315-33.31885-13.991666-8.81783-8.976442-13.594623-20.878516-13.415544-33.497928 0 0 0.159636-11.006681 0.159636-15.047718 0-112.613824 21.954011-221.865063 65.243957-324.726779 41.837874-99.339496 101.707426-188.546214 177.958064-265.175475 76.250638-76.589352 165.04087-136.737244 263.920902-178.754197 102.384855-43.529399 211.118302-65.582671 323.215356-65.582671 6.667863 0 13.574157 0.100284 20.499893 0.278339 25.755594 0.676405 45.857421 21.336958 45.778626 47.051619-0.039909 14.450107-0.399089 174.196391-0.399089 174.196391-0.019443 31.746028-21.276582 59.950394-51.689243 68.588121l-143.943366 40.802288c-8.41874 2.388397-17.116843 3.582595-25.854854 3.582595-24.99937 0-48.603975-9.673313-66.497507-27.188222l-90.959641-89.207741c-127.423111 65.522296-232.553497 170.653705-298.494325 298.473859l88.252996 90.919732c23.685445 24.441669 32.661887 59.989279 23.426549 92.790336L353.735975 696.325467C345.137133 726.877297 317.053518 748.214255 285.446659 748.214255L285.446659 748.214255 285.446659 748.214255zM285.446659 748.214255M285.446659 748.214255 110.533954 748.214255c-12.619412 0-24.441669-4.975315-33.31885-13.991666-8.81783-8.976442-13.594623-20.878516-13.415544-33.497928 0 0 0.159636-11.006681 0.159636-15.047718 0-112.613824 21.954011-221.865063 65.243957-324.726779 41.837874-99.339496 101.707426-188.546214 177.958064-265.175475 76.250638-76.589352 165.04087-136.737244 263.920902-178.754197 102.384855-43.529399 211.118302-65.582671 323.215356-65.582671 6.667863 0 13.574157 0.100284 20.499893 0.278339 25.755594 0.676405 45.857421 21.336958 45.778626 47.051619-0.039909 14.450107-0.399089 174.196391-0.399089 174.196391-0.019443 31.746028-21.276582 59.950394-51.689243 68.588121l-143.943366 40.802288c-8.41874 2.388397-17.116843 3.582595-25.854854 3.582595-24.99937 0-48.603975-9.673313-66.497507-27.188222l-90.959641-89.207741c-127.423111 65.522296-232.553497 170.653705-298.494325 298.473859l88.252996 90.919732c23.685445 24.441669 32.661887 59.989279 23.426549 92.790336L353.735975 696.325467C345.137133 726.877297 317.053518 748.214255 285.446659 748.214255L285.446659 748.214255 285.446659 748.214255zM285.446659 748.214255"  horiz-adv-x="1024" />

    
    <glyph glyph-name="icon7" unicode="&#58945;" d="M511.612167 140.194364c-48.945759 0-97.891518 0.01228-146.8383-0.005117-22.709211-0.008186-40.844244 9.035794-52.120055 28.819372-11.638061 20.420075-11.465123 41.862433 0.357134 62.200644 5.019317 8.634658 12.350283 16.000416 19.072381 23.548322 6.142907 6.898107 13.230326 12.963243 19.290345 19.927865 14.795984 17.002232 14.930037 31.197536 0.639566 48.815799-8.079002 9.960863-16.83748 19.376303-24.805966 29.421077-29.710672 37.45096-50.281173 79.18548-54.295604 127.299291-6.39771 76.67224 16.505929 143.864572 72.774467 196.841134 68.346621 64.348564 149.588947 84.503603 239.143589 55.537897 90.094948-29.140691 144.622842-93.25594 163.054633-185.992041 13.050224-65.664535-2.491751-126.139885-41.625026-180.329065-9.587356-13.276375-20.24202-25.824155-30.943756-38.244023-19.385513-22.49841-19.23918-36.620036 1.245364-58.303894 10.234085-10.833743 21.499663-20.922519 30.323633-32.813337 25.210172-33.975812 10.56666-81.749886-28.206412-93.754291-6.157233-1.906419-12.871145-2.78237-19.333324-2.812045-49.243541-0.226151-98.488105-0.12382-147.732669-0.12382C511.612167 140.2179 511.612167 140.206644 511.612167 140.194364zM902.512065-43.990518c-260.84996 0-520.201799 0-780.470521 0-0.195451 3.803629-0.521886 7.266497-0.528026 10.729365-0.038886 23.584138-0.096191 47.168276 0.017396 70.751391 0.166799 34.302247 25.063839 59.039651 59.589167 59.044768 220.017996 0.032746 440.035992 0.024559 660.053987-0.019443 36.661991-0.007163 61.217247-24.595164 61.322647-61.23362C902.57244 9.086327 902.512065-17.110311 902.512065-43.990518zM163.635871-149.480085c0 24.167422 0 47.952128 0 72.804143 3.310396 0.25071 6.713912 0.732687 10.117428 0.733711 225.425146 0.034792 450.850292-0.00921 676.275437 0.187265 8.147564 0.007163 10.822486-2.139733 10.585079-10.520611-0.590448-20.831444-0.194428-41.691541-0.194428-63.204507C627.684766-149.480085 395.906935-149.480085 163.635871-149.480085z"  horiz-adv-x="1024" />

    
    <glyph glyph-name="shouye" unicode="&#58926;" d="M979.2 422.4l-19.2 0L531.2 838.4c-12.8 12.8-25.6 12.8-38.4 0L57.6 422.4 44.8 422.4C19.2 422.4 0 403.2 0 377.6l0-38.4c0-25.6 19.2-44.8 44.8-44.8l115.2 0L160 0c0-25.6 19.2-44.8 44.8-44.8l185.6 0c25.6 0 44.8 19.2 44.8 44.8l0 236.8 153.6 0L588.8 0c0-25.6 19.2-44.8 44.8-44.8l185.6 0c25.6 0 44.8 19.2 44.8 44.8L864 294.4l115.2 0c25.6 0 44.8 19.2 44.8 44.8L1024 377.6C1024 403.2 1004.8 422.4 979.2 422.4z"  horiz-adv-x="1024" />

    
    <glyph glyph-name="iconfontyunyingpingtai09" unicode="&#58905;" d="M766.524768 870.141414 257.473939 870.141414C142.458828 870.141414 49.33301 776.259232 49.33301 660.397253l0-407.442101c0-115.869737 93.02497-209.799758 207.838384-209.799758l94.757495 0 122.369293-137.980121c10.166303-11.525172 27.838061-11.772121 38.403879-0.681374L644.610586 43.156687l121.94004 0c115.141818 0 208.116364 93.827879 208.116364 209.799758L974.66699 660.397253C974.66699 776.232081 881.464889 870.141414 766.524768 870.141414L766.524768 870.141414 766.524768 870.141414 766.524768 870.141414zM275.565899 608.786101l400.116364 0c14.460121 0 26.181818-11.847111 26.181818-26.432646 0-14.579071-11.721697-26.427475-26.181818-26.427475L275.565899 555.92598c-14.454949 0-26.202505 11.848404-26.202505 26.427475C249.363394 596.93899 261.110949 608.786101 275.565899 608.786101L275.565899 608.786101 275.565899 608.786101 275.565899 608.786101zM748.404364 379.742384 275.569778 379.742384c-14.460121 0-26.207677 11.81996-26.207677 26.430061 0 14.579071 11.747556 26.408081 26.207677 26.408081l472.833293 0c14.460121 0 26.181818-11.827717 26.181818-26.408081C774.58101 391.562343 762.85802 379.742384 748.404364 379.742384L748.404364 379.742384 748.404364 379.742384 748.404364 379.742384zM748.404364 379.742384"  horiz-adv-x="1024" />

    
    <glyph glyph-name="dianhua1" unicode="&#58963;" d="M77.874568 319.778765l269.779753 181.719365L347.654321 586.163245c0 0-54.179894-2.275556-54.179894-80.150123s-196.420176-53.060176-215.599859-53.060176-27.089947 13.544974-27.089947 96.620811 59.814603 173.122822 461.107019 173.122822 460.529101-109.479506 460.529101-173.122822 0-96.620811-27.667866-96.620811-216.719577-28.209665-216.719577 51.940459-55.299612 85.784832-55.299612 85.784832l0-88.060388 272.019189-180.599647 0-276.53418-866.878307 0L77.874568 319.778765zM511.602681 417.988854c-76.68261 0-138.845009-62.162399-138.845009-138.845009 0-76.68261 62.162399-138.845009 138.845009-138.845009 76.68261 0 138.845009 62.162399 138.845009 138.845009C650.44769 355.790335 588.285291 417.988854 511.602681 417.988854zM618.553792 570.451076c0 11.305538-9.174462 20.48-20.48 20.48L425.13157 590.931076c-11.305538 0-20.48-9.174462-20.48-20.48l0-41.682399c0-11.305538 9.174462-20.48 20.48-20.48l172.942222 0c11.305538 0 20.48 9.174462 20.48 20.48L618.553792 570.451076z"  horiz-adv-x="1024" />

    
    <glyph glyph-name="xiaoxi" unicode="&#58899;" d="M868.352 753.984 155.648 753.984C105.024 753.984 64 711.936 64 660.032l0-412.352c0-51.904 41.024-93.952 91.648-93.952l40.32 0c16.384 0 29.696-13.632 29.696-30.464l0-87.68c0-18.304 20.864-28.288 34.56-16.512l123.2 106.048c21.504 18.496 48.64 28.608 76.672 28.608l408.32 0c50.624 0 91.648 42.048 91.648 93.952L960.064 660.032C960 711.936 918.976 753.984 868.352 753.984z"  horiz-adv-x="1024" />

    
    <glyph glyph-name="shenqing1" unicode="&#58935;" d="M856.375793 583.793372 856.375793 550.19209 856.375793 550.19209ZM648.000975 799.402965 679.264003 799.402965 648.000975 799.402965ZM714.882222 831.512267 152.627654 831.512267l0-893.502877L908.668787-61.99061 908.668787 593.822796 714.882222 831.512267zM289.384341 424.866756l274.92349 0 0-34.366715L289.384341 390.500041 289.384341 424.866756zM289.384341 277.369448l343.655897 0 0-34.365692L289.384341 243.003755 289.384341 277.369448zM701.7706 95.523843 289.384341 95.523843l0 34.365692 412.386258 0L701.7706 95.523843z"  horiz-adv-x="1024" />

    
    <glyph glyph-name="biyan" unicode="&#59417;" d="M707.910948 636.611322l91.052762 130.717134-50.761104 33.895995L648.810922 658.53668c-41.478693 12.288884-87.363743 19.631106-137.814786 19.631106-292.827255 0-448.087365-277.695626-448.087365-277.695626s94.688569-139.408073 260.782422-208.68488L193.338357 4.650159l50.761104-33.897018 139.511427 200.285582c39.33589-10.891048 81.872682-17.397229 127.385249-17.397229 280.467763 0 448.125227 246.829642 448.125227 246.829642S880.407628 559.151136 707.910948 636.611322zM349.59619 415.658024c0 87.117127 72.386634 157.756977 161.677263 157.756977 24.313755 0 47.367821-5.247514 68.054979-14.629185l-55.680137-79.935564c-4.101411 0.733711-8.318456 1.136893-12.633738 1.136893-39.09132 0-70.781066-31.432896-70.781066-70.197782 0-13.231349 3.697205-25.605168 10.115382-36.169781l-50.398854-72.353888C368.935654 330.009342 349.59619 370.630505 349.59619 415.658024zM511.273453 257.90207c-21.002336 0-41.068348 3.910053-59.478649 11.022031l49.678446 71.319325c3.122107-0.417509 6.303566-0.652869 9.541307-0.652869 39.092343 0 70.780043 31.432896 70.780043 70.197782 0 12.124132-3.099594 23.530926-8.555863 33.483602l55.94108 80.310094c27.14115-28.218692 43.771923-66.176189 43.771923-107.922988C672.948669 328.537827 600.563058 257.90207 511.273453 257.90207z"  horiz-adv-x="1024" />

    
    <glyph glyph-name="tianjia" unicode="&#59423;" d="M512.548-62.039c-246.038 0-445.491 199.453-445.491 445.49S266.511 828.942 512.548 828.942s445.49-199.453 445.49-445.491-199.452-445.49-445.49-445.49z m37.125 482.615V568.981c0 20.832-16.621 37.216-37.124 37.216-20.646 0-37.124-16.662-37.124-37.216v-148.405H327.019c-20.832 0-37.216-16.621-37.216-37.124 0-20.646 16.662-37.124 37.216-37.124h148.405v-148.405c0-20.832 16.621-37.216 37.124-37.216 20.646 0 37.124 16.662 37.124 37.216V346.327h148.405c20.832 0 37.216 16.621 37.216 37.124 0 20.646-16.662 37.124-37.216 37.124H549.673z"  horiz-adv-x="1024" />

    
    <glyph glyph-name="bianji1" unicode="&#58960;" d="M811.616 597.184L667.04 741.76l72.32 72.32a61.344 61.344 0 0 0 86.72 0l57.824-57.856a61.376 61.376 0 0 0 0-86.784l-72.288-72.256zM391.616 177.184L247.04 321.76 640.064 711.712l144.576-144.576-393.024-389.952zM130.88 58.624l88 234.976 143.36-143.424-231.36-91.52z m649.28-49.408a36.608 36.608 0 1 0 0-73.216H132.608a36.608 36.608 0 0 0 0 73.216H780.16z"  horiz-adv-x="1024" />

    
    <glyph glyph-name="yanjing" unicode="&#58880;" d="M1005.482 384.079c0-95.008-203.483-297.684-493.455-297.684-282.592 0-493.455 199.341-493.455 297.684 0 98.329 211.773 297.366 493.455 297.366 292.252-0.001 493.524-199.037 493.455-297.366zM512.461 627.145c-131.33 0-237.793-108.901-237.793-243.228 0-134.327 106.462-243.228 237.793-243.228 131.371 0 237.837 108.901 237.837 243.228-0.001 134.326-106.466 243.228-237.837 243.228zM512.027 539.2c-83.634 0-151.435-69.337-151.435-154.877 0-85.531 67.801-154.88 151.435-154.88s151.408 69.349 151.408 154.88c0 85.54-67.773 154.877-151.408 154.877z"  horiz-adv-x="1024" />

    
    <glyph glyph-name="gonggao" unicode="&#58919;" d="M681.1136 26.9824h229.9392c13.1072 0 23.7568 9.6256 23.7568 21.504 0 11.8784-10.6496 21.504-23.7568 21.504-66.1504 0-80.0768 122.7264-80.0768 225.6384v138.24c0 155.1872-94.0544 291.6352-234.0352 339.5072-24.8832 8.7552-25.6 45.2096-25.6 45.568 0 39.3216-33.8944 71.2704-75.6224 71.2704-41.728 0-75.6736-32-75.6736-71.2192 0-24.576-7.6288-39.68-22.528-44.7488-139.52-48.9472-237.056-188.928-237.056-340.3264v-136.8576c0-56.832-5.4784-192.1536-55.808-220.672a47.8208 47.8208 0 0 0-22.016-6.2976c-15.0528 0-26.0608-9.472-26.0608-21.5552 0-11.8784 10.6496-21.504 23.7568-21.504h600.7808v-0.0512zM373.0432-29.3376c13.4656-53.248 64-92.928 124.0576-92.928 60.0064 0 110.4896 39.68 124.0064 92.928H373.0432z"  horiz-adv-x="1024" />

    
    <glyph glyph-name="guoqi_flag" unicode="&#58950;" d="M504.609747 423.419473c121.070421 71.910177 205.166408 73.485529 271.238517 45.036528 12.18581-5.235728 19.830899-10.193453 22.981603-12.880817l37.437773-32.155711V848.208459l-7.876759 6.764746A140.391648 140.391648 0 0 1 793.779474 875.128442c-79.694269 34.287069-178.987768 31.460703-312.290332-47.723894-85.393336-50.735596-150.585101-57.732011-200.255017-35.352748l2.316693-405.931098c58.334351-15.05851 137.287278-12.463813 221.058929 37.298771zM233.046892 827.497216L187.73236 827.404548v-955.358214h45.314532s3.011702 952.114843 0 955.450882z"  horiz-adv-x="1024" />

    
    <glyph glyph-name="shanchu" unicode="&#58939;" d="M706.56 527.36v-404.48c5.12-20.48-10.24-35.84-30.72-40.96H358.4c-20.48 0-35.84 15.36-40.96 30.72V527.36H245.76v-445.44c-5.12-40.96 20.48-76.8 61.44-81.92h399.36c40.96 0 76.8 30.72 76.8 76.8V527.36h-76.8zM399.36 486.4v-322.56h76.8V486.4H399.36zM665.6 645.12V727.04c0 30.72 0 40.96-40.96 40.96H399.36c-40.96 0-40.96-15.36-40.96-40.96v-81.92H204.8v-81.92h614.4V645.12h-153.6z m-76.8 0h-153.6v40.96h153.6v-40.96zM435.2 686.08c0 15.36 0 0 0 0zM588.8 686.08s0 15.36 0 0zM552.96 486.4v-322.56h76.8V486.4h-76.8z"  horiz-adv-x="1024" />

    
    <glyph glyph-name="renshihangzhengshi" unicode="&#59038;" d="M875.2 40c0-32-27.2-57.6-60.8-57.6H208.8c-33.6 0-60.8 25.6-60.8 57.6 0 114.4 116.8 221.6 236.8 264-68.8 40-115.2 112-115.2 194.4v57.6c0 126.4 108.8 229.6 242.4 229.6s242.4-102.4 242.4-229.6v-57.6C754.4 416 708 344 638.4 304c120-42.4 236.8-149.6 236.8-264z"  horiz-adv-x="1024" />

    
    <glyph glyph-name="xinzi" unicode="&#58967;" d="M472.177778 287.288889v-56.888889H392.533333c-17.066667 0-34.133333-17.066667-34.133333-34.133333s17.066667-34.133333 34.133333-34.133334h73.955556v-79.644444c0-17.066667 17.066667-34.133333 34.133333-34.133333s34.133333 17.066667 34.133334 34.133333v79.644444h91.022222c17.066667 0 34.133333 17.066667 34.133333 34.133334s-17.066667 34.133333-34.133333 34.133333H534.755556v56.888889h91.022222c17.066667 0 34.133333 17.066667 34.133333 34.133333s-17.066667 34.133333-34.133333 34.133334h-45.511111l68.266666 51.2c17.066667 11.377778 17.066667 28.444444 5.688889 45.511111-11.377778 11.377778-34.133333 11.377778-45.511111 0L512 384 415.288889 452.266667c-17.066667 11.377778-34.133333 11.377778-45.511111-5.688889-11.377778-11.377778-5.688889-34.133333 5.688889-45.511111l68.266666-51.2h-51.2c-17.066667 0-34.133333-17.066667-34.133333-34.133334s17.066667-34.133333 34.133333-34.133333h79.644445zM364.088889 731.022222L267.377778 804.977778c-34.133333 28.444444-28.444444 51.2 22.755555 51.2l62.577778-5.688889c11.377778 0 28.444444 5.688889 34.133333 11.377778l-11.377777-11.377778C409.6 884.622222 460.8 890.311111 494.933333 856.177778L489.244444 861.866667c5.688889-5.688889 22.755556-5.688889 28.444445 0l-11.377778-11.377778C540.444444 884.622222 597.333333 890.311111 631.466667 856.177778L620.088889 861.866667c5.688889-5.688889 22.755556-11.377778 34.133333-11.377778l45.511111 11.377778c45.511111 11.377778 56.888889-5.688889 22.755556-39.822223L642.844444 736.711111c-11.377778-17.066667-45.511111-34.133333-68.266666-34.133333H432.355556c-22.755556 0-51.2 11.377778-68.266667 28.444444zM341.333333 611.555556c17.066667 17.066667 51.2 28.444444 73.955556 28.444444h170.666667c22.755556 0 56.888889-11.377778 73.955555-28.444444 0 0 273.066667-204.8 250.311111-398.222223-22.755556-193.422222-113.777778-312.888889-386.844444-318.577777-273.066667-5.688889-403.911111 136.533333-415.288889 329.955555S341.333333 611.555556 341.333333 611.555556z"  horiz-adv-x="1024" />

    
    <glyph glyph-name="daiban" unicode="&#58882;" d="M898.559 304.81c-69.166 46.303-141.452 53.667-215.948 16.778-50.182-24.855-83.683-65.89-100.632-119.194-13.118-41.265-12.81-83.266 0.5-124.67 13.237-41.185 37.554-74.803 72.23-100.577 34.689-25.78 73.832-39.24 117.18-40.572h-6.258c-184.83 0-369.66-0.06-554.484 0.089-19.98 0.021-39.462 3.534-57.595 12.586-21.445 10.705-38.526 26.12-50.883 46.752-9.332 15.575-15.436 32.17-16.57 50.426-0.29 4.541-0.996 9.07-0.996 13.608-0.05 217.968-0.18 435.932 0.134 653.9 0.035 26.632 9.605 50.6 26.223 71.632 11.129 14.094 24.595 25.452 40.543 33.452 12.71 6.378 26.154 11.247 40.647 11.845 12.154 0.507 24.312 1.044 36.47 1.05 183.412 0.065 366.821 0.12 550.239-0.04 26.148-0.025 49.856-8.414 70.688-24.312 21.072-16.088 36.341-36.485 43.207-62.305 2.751-10.333 5.058-21.17 5.087-31.781 0.34-133.97 0.22-267.94 0.22-401.912-0.002-2.08-0.002-4.162-0.002-6.756zM491.852 445.944c81.331 0 162.663 0.114 244-0.125 11.824-0.04 20.322 9.49 20.216 20.534-0.102 11.416-9.631 19.994-22.328 19.994-161.247 0.01-322.495 0.01-483.74-0.04-2.4 0-4.825-0.508-7.18-1.03-8.907-1.977-16.42-11.736-15.175-20.439 1.538-10.749 7.917-18.95 19.677-18.933 81.509 0.074 163.018 0.039 244.53 0.039z m0.09 202.047c-81.519 0-163.037-0.02-244.56 0.034-7.498 0.005-13.268-2.952-16.843-9.42-3.75-6.79-3.649-13.865 0.085-20.736 4.77-8.783 13.195-10.232 21.927-10.237 158.258-0.07 316.51-0.059 474.761-0.009 3.82 0 7.64 0.697 11.458 1 11.73 0.941 18.512 12.065 17.237 22.151-1.183 9.41-9.012 17.426-20.569 17.376-81.164-0.304-162.33-0.16-243.495-0.16zM369.798 283.246c40.731 0 81.459 0.22 122.185-0.144 11.132-0.1 20.338 9.38 20.364 19.622 0.02 11.577-7.318 20.836-20.662 20.862-81.106 0.14-162.207 0.09-243.307 0.05-11.909-0.006-20.687-8.778-20.677-20.409 0.006-10.635 9.316-20.233 20.443-20.13 40.549 0.379 81.1 0.15 121.654 0.15z m-20.508-162.702c33.831 0 67.663 0.169 101.493-0.09 11.298-0.084 20.38 9.57 20.603 19.746 0.27 12.423-10.341 20.88-20.572 20.851-67.309-0.184-134.618-0.12-201.927-0.074-12.178 0.01-21.36-8.798-21.166-20.474 0.204-11.954 9.553-19.994 21.135-19.975 33.478 0.055 66.956 0.016 100.434 0.016zM938.967 140.708c0-88.719-73.177-165.576-168.831-162.539-82.46 2.619-159.638 71.964-156.407 169.27 2.718 81.997 71.854 159.153 169.257 155.822 83.29-2.848 155.453-71.63 155.98-162.553z m-142.494 0.039c0 34.329 0.19 67.808-0.088 101.28-0.12 13.986-9.13 20.792-20.703 20.702-11.57-0.09-19.567-8.654-19.587-20.812-0.076-40.568-0.04-81.135-0.026-121.708 0.006-11.337 8.449-19.85 19.722-19.86 27.632-0.02 55.275-0.01 82.907 0 1.415 0 2.908-0.154 4.223 0.238 10.485 3.113 16.429 13.14 14.27 24.785-1.543 8.305-9.346 15.514-20.234 15.419-18.07-0.15-36.143-0.04-54.21-0.04-1.908-0.004-3.813-0.004-6.274-0.004z"  horiz-adv-x="1024" />

    
    <glyph glyph-name="wenjian" unicode="&#58896;" d="M957.8 46.9V614.2c0 68.5-61.7 61.7-61.7 61.7H546.7c-21.9 0-31.5 11-31.5 11s-15.1 26-41.1 67.2c-27.4 42.5-60.3 35.6-60.3 35.6H142.4c-75.4 0-76.7-74-76.7-74V51c0-82.2 61.7-72.6 61.7-72.6h774.2c65.8-0.1 56.2 68.5 56.2 68.5zM812.6 440.4H211.4c-20.7 0-37.7 18.3-37.7 40.6 0 21.1 15.8 40.6 37.7 40.6h601.2c20.7 0 37.7-18.3 37.7-40.6 0-21.1-15.8-40.6-37.7-40.6z"  horiz-adv-x="1024" />

    
    <glyph glyph-name="youjian" unicode="&#58900;" d="M848.5 774.3h-673c-61.6 0-111.7-50.1-111.7-111.8v-0.9l422.1-267.5c19.8-12.6 55.5-12.3 75.2 0.5l399.1 261.9v6c0 61.6-50 111.8-111.7 111.8zM63.8 570v-464.5c0-61.5 50-111.8 111.7-111.8h673c61.6 0 111.7 50.1 111.7 111.8V563.8L608.8 324c-47.9-31.4-121.2-31.8-169.5-1.2L63.8 570z"  horiz-adv-x="1024" />

    
    <glyph glyph-name="bianji" unicode="&#58881;" d="M119.929-63.682h643.183c30.887 0 55.93 25.042 55.93 55.928V401.802l-55.93-53.395v-356.16H119.93V691.361h392.91l56.544 54.48-1.462 1.449H119.929C89.043 747.29 64 722.248 64 691.36v-699.114c0-30.887 25.043-55.929 55.929-55.929zM915.935 795.224c-25.233 24.196-53.088 36.459-82.8 36.459-46.507 0-80.425-30.04-89.657-39.23-13.08-12.918-383.789-383.08-383.789-383.08-2.908-2.963-5.038-6.582-6.117-10.609-10.036-37.114-60.367-201.856-60.859-203.493-2.593-8.438-0.273-17.643 5.94-23.787a23.27 23.27 0 0 1 16.523-6.856c2.403 0 4.82 0.357 7.196 1.094 1.707 0.573 171.718 55.546 199.697 63.902a23.573 23.573 0 0 1 9.804 5.79c17.656 17.424 358.392 352.874 385.974 381.358 28.51 29.412 42.684 59.998 42.138 90.966-0.52 30.574-15.402 60.028-44.05 87.486z m-38.26-139.55c-15.566-16.057-137.42-136.463-362.187-357.886l-17.206-16.958c-25.765-7.976-87.47-27.802-134.115-42.848 15.02 49.592 33.045 109.507 41.073 137.841 48.037 47.97 365.628 365.082 377.7 376.989 2.348 2.35 23.786 22.94 50.194 22.94 14.993 0 29.439-6.842 44.103-20.906 17.533-16.823 26.572-32.99 26.818-48.091 0.274-15.538-8.602-32.714-26.38-51.08z"  horiz-adv-x="1024" />

    


  </font>
</defs>
</svg>
